<svg viewBox="0 0 24 24" xmlns="http://www.w3.org/2000/svg"><path d="m0 0h24v24h-24z" fill="none"/><path d="m179.04319 174.84509h-10a5.00181 5.00181 0 0 0 -5 5v3.45a4.99764 4.99764 0 0 0 4.21 4.94 6.8396 6.8396 0 0 1 2.93 1.22l1.08.8a2.9855 2.9855 0 0 0 3.55 0l1.09-.8a6.78864 6.78864 0 0 1 2.93-1.22 5.00668 5.00668 0 0 0 4.21-4.94v-3.45a5.00181 5.00181 0 0 0 -5-5zm-2.28211 7.90887h-5.43994a.75.75 0 0 1 0-1.5h5.43994a.75.75 0 0 1 0 1.5z" fill="#030835" transform="translate(-162.04319 -170.84259)"/></svg>